<svg width="72" height="74" viewBox="0 0 72 74" fill="none" xmlns="http://www.w3.org/2000/svg">
<g filter="url(#filter0_d_168_1174)">
<rect x="1.91943" y="7.95942" width="60" height="60" rx="13.3333" transform="rotate(-7.62316 1.91943 7.95942)" fill="white"/>
<g clip-path="url(#clip0_168_1174)">
<path d="M29.6169 45.5242L25.4629 27.1187L43.7122 24.6762L44.5425 43.5236L37.3465 46.5956L29.6169 45.5242Z" fill="#E44D26"/>
<path d="M37.1457 45.0105L42.9603 42.528L42.251 26.4223L34.7915 27.4207L37.1457 45.0105Z" fill="#F16529"/>
<path d="M35.7163 34.3295L32.693 34.7341L32.1713 32.4223L35.4031 31.9897L35.0974 29.7051L29.3687 30.4718L29.5052 31.0776L30.9095 37.2982L36.022 36.6139L35.7163 34.3295ZM36.5104 40.2626L36.5006 40.2666L33.8645 39.92L33.4579 38.1199L31.1644 38.4268L31.9646 41.9712L36.8184 42.644L36.8285 42.6395L36.5104 40.2626Z" fill="#EBEBEB"/>
<path d="M26.4834 21.8291L27.6443 21.6737L27.7978 22.8209L28.86 22.6788L28.7065 21.5315L29.8676 21.3761L30.3325 24.8497L29.1714 25.0051L29.0157 23.842L27.9537 23.9841L28.1094 25.1473L26.9483 25.3027L26.4834 21.8291ZM31.5484 22.3238L30.5262 22.4606L30.3721 21.3086L33.5778 20.8795L33.732 22.0316L32.7095 22.1684L33.0202 24.49L31.8591 24.6454L31.5484 22.3238ZM34.0866 20.8114L35.2971 20.6494L36.2053 21.7703L36.7859 20.4502L37.997 20.2881L38.4619 23.7617L37.3053 23.9165L37.0749 22.1947L36.4417 23.5366L36.4214 23.5394L35.457 22.4113L35.6875 24.133L34.5513 24.2851L34.0864 20.8115L34.0866 20.8114ZM38.575 20.2107L39.7363 20.0553L40.0475 22.3808L41.6802 22.1623L41.8339 23.3106L39.0399 23.6845L38.575 20.2107Z" fill="black"/>
<path d="M35.7083 34.3306L36.014 36.615L38.8273 36.2385L38.9587 39.2369L36.5027 40.2658L36.8208 42.6425L41.3307 40.7176L41.3133 40.3269L41.0452 34.2406L41.0188 33.6198L40.4031 33.7022L35.7083 34.3306ZM35.0894 29.7062L35.3951 31.9908L40.9136 31.2522L40.8905 30.7326L40.8398 29.5606L40.8125 28.9402L35.0894 29.7062Z" fill="white"/>
</g>
</g>
<defs>
<filter id="filter0_d_168_1174" x="-2.08057" y="1.23382e-05" width="75.4292" height="75.4291" filterUnits="userSpaceOnUse" color-interpolation-filters="sRGB">
<feFlood flood-opacity="0" result="BackgroundImageFix"/>
<feColorMatrix in="SourceAlpha" type="matrix" values="0 0 0 0 0 0 0 0 0 0 0 0 0 0 0 0 0 0 127 0" result="hardAlpha"/>
<feOffset dy="4"/>
<feGaussianBlur stdDeviation="2"/>
<feComposite in2="hardAlpha" operator="out"/>
<feColorMatrix type="matrix" values="0 0 0 0 0 0 0 0 0 0 0 0 0 0 0 0 0 0 0.1 0"/>
<feBlend mode="normal" in2="BackgroundImageFix" result="effect1_dropShadow_168_1174"/>
<feBlend mode="normal" in="SourceGraphic" in2="effect1_dropShadow_168_1174" result="shape"/>
</filter>
<clipPath id="clip0_168_1174">
<rect width="26.6667" height="26.6667" fill="white" transform="translate(20.6497 22.2678) rotate(-7.62316)"/>
</clipPath>
</defs>
</svg>
