<svg width="1400" height="195" viewBox="0 0 1400 195" fill="none" xmlns="http://www.w3.org/2000/svg">
<g opacity="0.16">
<path d="M0 185.972V3.64651H114.605V34.9024H34.3814V78.9212H108.354V110.177H34.3814V185.972H0ZM139.135 185.972V3.64651H173.517V76.0561H178.205L237.331 3.64651H281.349L205.294 93.5073L283.954 185.972H238.633L178.205 112H173.517V185.972H139.135ZM365.142 189.619C342.221 189.619 323.988 183.368 310.444 170.865C296.9 158.189 290.128 140.131 290.128 116.689V72.9305C290.128 49.4884 296.9 31.5163 310.444 19.014C323.988 6.33798 342.221 0 365.142 0C388.063 0 406.295 6.33798 419.839 19.014C433.384 31.5163 440.156 49.4884 440.156 72.9305V116.689C440.156 140.131 433.384 158.189 419.839 170.865C406.295 183.368 388.063 189.619 365.142 189.619ZM365.142 158.884C377.991 158.884 387.975 155.15 395.095 147.684C402.214 140.217 405.774 130.233 405.774 117.731V71.8887C405.774 59.3861 402.214 49.4015 395.095 41.9349C387.975 34.4682 377.991 30.7349 365.142 30.7349C352.466 30.7349 342.481 34.4682 335.188 41.9349C328.068 49.4015 324.509 59.3861 324.509 71.8887V117.731C324.509 130.233 328.068 140.217 335.188 147.684C342.481 155.15 352.466 158.884 365.142 158.884ZM605.73 189.619C583.156 189.619 565.271 183.368 552.074 170.865C538.877 158.189 532.279 140.131 532.279 116.689V72.9305C532.279 49.4884 538.877 31.5163 552.074 19.014C565.271 6.33798 583.156 0 605.73 0C628.13 0 645.407 6.16434 657.565 18.493C669.891 30.648 676.058 47.4047 676.058 68.7631V70.3259H642.195V67.7212C642.195 56.955 639.156 48.0992 633.079 41.1535C627.175 34.2078 618.059 30.7349 605.73 30.7349C593.575 30.7349 584.024 34.4682 577.079 41.9349C570.133 49.4015 566.66 59.5597 566.66 72.4096V117.21C566.66 129.885 570.133 140.043 577.079 147.684C584.024 155.15 593.575 158.884 605.73 158.884C618.059 158.884 627.175 155.411 633.079 148.465C639.156 141.346 642.195 132.49 642.195 121.898V117.21H676.058V120.856C676.058 142.214 669.891 159.057 657.565 171.386C645.407 183.541 628.13 189.619 605.73 189.619ZM774.917 189.619C751.996 189.619 733.764 183.368 720.219 170.865C706.675 158.189 699.903 140.131 699.903 116.689V72.9305C699.903 49.4884 706.675 31.5163 720.219 19.014C733.764 6.33798 751.996 0 774.917 0C797.838 0 816.071 6.33798 829.615 19.014C843.159 31.5163 849.931 49.4884 849.931 72.9305V116.689C849.931 140.131 843.159 158.189 829.615 170.865C816.071 183.368 797.838 189.619 774.917 189.619ZM774.917 158.884C787.765 158.884 797.753 155.15 804.871 147.684C811.988 140.217 815.55 130.233 815.55 117.731V71.8887C815.55 59.3861 811.988 49.4015 804.871 41.9349C797.753 34.4682 787.765 30.7349 774.917 30.7349C762.239 30.7349 752.257 34.4682 744.964 41.9349C737.846 49.4015 734.285 59.3861 734.285 71.8887V117.731C734.285 130.233 737.846 140.217 744.964 147.684C752.257 155.15 762.239 158.884 774.917 158.884ZM869.03 185.972V155.758H892.992V33.8605H869.03V3.64651H944.044C968.527 3.64651 987.105 9.8977 999.783 22.4C1012.63 34.7287 1019.06 53.1349 1019.06 77.6189V112C1019.06 136.484 1012.63 154.977 999.783 167.479C987.105 179.808 968.527 185.972 944.044 185.972H869.03ZM927.374 154.717H944.565C958.454 154.717 968.612 151.07 975.039 143.777C981.46 136.484 984.676 126.239 984.676 113.042V76.577C984.676 63.2062 981.46 52.9612 975.039 45.8419C968.612 38.5489 958.454 34.9024 944.565 34.9024H927.374V154.717ZM1047.71 185.972V3.64651H1164.92V34.9024H1082.09V78.4003H1157.62V109.656H1082.09V154.717H1166.48V185.972H1047.71ZM1255.23 189.619C1241.16 189.619 1228.74 187.101 1217.98 182.065C1207.21 177.029 1198.79 169.824 1192.72 160.447C1186.63 151.07 1183.6 139.783 1183.6 126.586V119.293H1217.46V126.586C1217.46 137.526 1220.85 145.773 1227.62 151.331C1234.39 156.713 1243.59 159.405 1255.23 159.405C1267.03 159.405 1275.8 157.061 1281.53 152.372C1287.43 147.684 1290.39 141.693 1290.39 134.4C1290.39 129.364 1288.91 125.284 1285.96 122.158C1283.18 119.033 1279.01 116.515 1273.46 114.605C1268.08 112.521 1261.48 110.611 1253.67 108.875L1247.67 107.572C1235.17 104.794 1224.4 101.321 1215.38 97.1538C1206.52 92.8125 1199.66 87.1688 1194.8 80.2235C1190.11 73.2776 1187.77 64.248 1187.77 53.1349C1187.77 42.0217 1190.37 32.5582 1195.58 24.7442C1200.96 16.7566 1208.43 10.6791 1217.98 6.51165C1227.7 2.17055 1239.08 0 1252.1 0C1265.13 0 1276.67 2.25737 1286.74 6.77211C1296.99 11.1132 1304.98 17.7116 1310.71 26.5675C1316.61 35.2496 1319.56 46.1892 1319.56 59.3861V67.2003H1285.7V59.3861C1285.7 52.4403 1284.31 46.8837 1281.53 42.7163C1278.93 38.3752 1275.11 35.2496 1270.07 33.3396C1265.03 31.2558 1259.04 30.214 1252.1 30.214C1241.68 30.214 1233.95 32.2108 1228.92 36.2047C1224.06 40.0248 1221.63 45.321 1221.63 52.0931C1221.63 56.6078 1222.75 60.4279 1225.01 63.5535C1227.44 66.6794 1231 69.284 1235.69 71.3677C1240.38 73.4515 1246.37 75.2747 1253.67 76.8375L1259.66 78.1398C1272.68 80.9177 1283.96 84.4776 1293.52 88.8189C1303.24 93.1595 1310.79 98.8898 1316.18 106.01C1321.56 113.129 1324.25 122.245 1324.25 133.358C1324.25 144.471 1321.39 154.282 1315.66 162.791C1310.09 171.126 1302.11 177.724 1291.69 182.586C1281.44 187.275 1269.29 189.619 1255.23 189.619ZM1371.51 189.619C1364.56 189.619 1358.66 187.361 1353.8 182.847C1349.11 178.158 1346.77 172.168 1346.77 164.875C1346.77 157.582 1349.11 151.678 1353.8 147.163C1358.66 142.475 1364.56 140.131 1371.51 140.131C1378.63 140.131 1384.54 142.475 1389.22 147.163C1393.91 151.678 1396.26 157.582 1396.26 164.875C1396.26 172.168 1393.91 178.158 1389.22 182.847C1384.54 187.361 1378.63 189.619 1371.51 189.619Z" fill="#FBFCFE"/>
</g>
</svg>
