<svg width="172" height="24" viewBox="0 0 172 24" fill="none" xmlns="http://www.w3.org/2000/svg">
<g clip-path="url(#clip0_211_434)">
<path d="M0 22.848V0.448H14.08V4.288H4.224V9.69604H13.312V13.536H4.224V22.848H0ZM17.0938 22.848V0.448H21.3178V9.34404H21.8938L29.1578 0.448H34.5658L25.2218 11.488L34.8858 22.848H29.3178L21.8938 13.76H21.3178V22.848H17.0938ZM44.8603 23.296C42.0443 23.296 39.8043 22.528 38.1403 20.992C36.4763 19.4347 35.6443 17.216 35.6443 14.336V8.96004C35.6443 6.08 36.4763 3.872 38.1403 2.336C39.8043 0.778666 42.0443 0 44.8603 0C47.6763 0 49.9163 0.778666 51.5803 2.336C53.2443 3.872 54.0763 6.08 54.0763 8.96004V14.336C54.0763 17.216 53.2443 19.4347 51.5803 20.992C49.9163 22.528 47.6763 23.296 44.8603 23.296ZM44.8603 19.52C46.4389 19.52 47.6656 19.0613 48.5403 18.144C49.4149 17.2267 49.8523 16 49.8523 14.464V8.83204C49.8523 7.296 49.4149 6.06933 48.5403 5.152C47.6656 4.23467 46.4389 3.776 44.8603 3.776C43.3029 3.776 42.0763 4.23467 41.1803 5.152C40.3055 6.06933 39.8683 7.296 39.8683 8.83204V14.464C39.8683 16 40.3055 17.2267 41.1803 18.144C42.0763 19.0613 43.3029 19.52 44.8603 19.52ZM74.4183 23.296C71.6449 23.296 69.4475 22.528 67.8263 20.992C66.2049 19.4347 65.3943 17.216 65.3943 14.336V8.96004C65.3943 6.08 66.2049 3.872 67.8263 2.336C69.4475 0.778666 71.6449 0 74.4183 0C77.1703 0 79.2929 0.757334 80.7865 2.272C82.3009 3.76533 83.0585 5.824 83.0585 8.44804V8.64004H78.8983V8.32003C78.8983 6.99733 78.5249 5.90933 77.7783 5.056C77.0529 4.20267 75.9329 3.776 74.4183 3.776C72.9249 3.776 71.7516 4.23467 70.8983 5.152C70.0449 6.06933 69.6183 7.31733 69.6183 8.89604V14.4C69.6183 15.9573 70.0449 17.2053 70.8983 18.144C71.7516 19.0613 72.9249 19.52 74.4183 19.52C75.9329 19.52 77.0529 19.0933 77.7783 18.24C78.5249 17.3653 78.8983 16.2773 78.8983 14.976V14.4H83.0585V14.848C83.0585 17.472 82.3009 19.5413 80.7865 21.056C79.2929 22.5493 77.1703 23.296 74.4183 23.296ZM95.2041 23.296C92.3881 23.296 90.1481 22.528 88.4841 20.992C86.8201 19.4347 85.9881 17.216 85.9881 14.336V8.96004C85.9881 6.08 86.8201 3.872 88.4841 2.336C90.1481 0.778666 92.3881 0 95.2041 0C98.0201 0 100.26 0.778666 101.924 2.336C103.588 3.872 104.42 6.08 104.42 8.96004V14.336C104.42 17.216 103.588 19.4347 101.924 20.992C100.26 22.528 98.0201 23.296 95.2041 23.296ZM95.2041 19.52C96.7825 19.52 98.0097 19.0613 98.8841 18.144C99.7585 17.2267 100.196 16 100.196 14.464V8.83204C100.196 7.296 99.7585 6.06933 98.8841 5.152C98.0097 4.23467 96.7825 3.776 95.2041 3.776C93.6465 3.776 92.4201 4.23467 91.5241 5.152C90.6497 6.06933 90.2121 7.296 90.2121 8.83204V14.464C90.2121 16 90.6497 17.2267 91.5241 18.144C92.4201 19.0613 93.6465 19.52 95.2041 19.52ZM106.767 22.848V19.136H109.711V4.16H106.767V0.448H115.983C118.991 0.448 121.273 1.216 122.831 2.752C124.409 4.26667 125.199 6.528 125.199 9.53604V13.76C125.199 16.768 124.409 19.04 122.831 20.576C121.273 22.0907 118.991 22.848 115.983 22.848H106.767ZM113.935 19.008H116.047C117.753 19.008 119.001 18.56 119.791 17.664C120.579 16.768 120.975 15.5093 120.975 13.888V9.40804C120.975 7.76533 120.579 6.50667 119.791 5.632C119.001 4.736 117.753 4.288 116.047 4.288H113.935V19.008ZM128.719 22.848V0.448H143.119V4.288H132.943V9.63204H142.223V13.472H132.943V19.008H143.311V22.848H128.719ZM154.214 23.296C152.486 23.296 150.96 22.9867 149.638 22.368C148.315 21.7493 147.28 20.864 146.534 19.712C145.787 18.56 145.414 17.1733 145.414 15.552V14.656H149.574V15.552C149.574 16.896 149.99 17.9093 150.822 18.592C151.654 19.2533 152.784 19.584 154.214 19.584C155.664 19.584 156.742 19.296 157.446 18.72C158.171 18.144 158.534 17.408 158.534 16.512C158.534 15.8933 158.352 15.392 157.99 15.008C157.648 14.624 157.136 14.3147 156.454 14.08C155.792 13.824 154.982 13.5893 154.022 13.376L153.286 13.216C151.75 12.8747 150.427 12.448 149.318 11.936C148.23 11.4027 147.387 10.7093 146.79 9.85604C146.214 9.00268 145.926 7.89333 145.926 6.528C145.926 5.16267 146.246 4 146.886 3.04C147.547 2.05867 148.464 1.312 149.638 0.800003C150.832 0.266667 152.23 0 153.83 0C155.43 0 156.848 0.277334 158.086 0.832003C159.344 1.36533 160.326 2.176 161.03 3.264C161.755 4.33067 162.118 5.67467 162.118 7.296V8.25603H157.958V7.296C157.958 6.44267 157.787 5.76 157.446 5.248C157.126 4.71467 156.656 4.33067 156.038 4.096C155.419 3.84 154.683 3.712 153.83 3.712C152.55 3.712 151.6 3.95733 150.982 4.448C150.384 4.91733 150.086 5.568 150.086 6.4C150.086 6.95467 150.224 7.424 150.502 7.808C150.8 8.19204 151.238 8.51204 151.814 8.76803C152.39 9.02404 153.126 9.24804 154.022 9.44004L154.758 9.60004C156.358 9.94132 157.744 10.3787 158.918 10.912C160.112 11.4453 161.04 12.1493 161.702 13.024C162.363 13.8987 162.694 15.0187 162.694 16.384C162.694 17.7493 162.342 18.9547 161.638 20C160.955 21.024 159.974 21.8347 158.694 22.432C157.435 23.008 155.942 23.296 154.214 23.296ZM168.5 23.296C167.647 23.296 166.921 23.0187 166.324 22.464C165.748 21.888 165.46 21.152 165.46 20.256C165.46 19.36 165.748 18.6347 166.324 18.08C166.921 17.504 167.647 17.216 168.5 17.216C169.375 17.216 170.1 17.504 170.676 18.08C171.252 18.6347 171.54 19.36 171.54 20.256C171.54 21.152 171.252 21.888 170.676 22.464C170.1 23.0187 169.375 23.296 168.5 23.296Z" fill="white"/>
</g>
<defs>
<clipPath id="clip0_211_434">
<rect width="172" height="24" fill="white"/>
</clipPath>
</defs>
</svg>
