<svg width="215" height="30" viewBox="0 0 215 30" fill="none" xmlns="http://www.w3.org/2000/svg">
<g clip-path="url(#clip0_168_1039)">
<path d="M0 28.56V0.56H17.6V5.36H5.28V12.12H16.64V16.92H5.28V28.56H0ZM21.3672 28.56V0.56H26.6472V11.68H27.3672L36.4472 0.56H43.2072L31.5272 14.36L43.6072 28.56H36.6472L27.3672 17.2H26.6472V28.56H21.3672ZM56.0753 29.12C52.5553 29.12 49.7553 28.16 47.6753 26.24C45.5953 24.2933 44.5553 21.52 44.5553 17.92V11.2C44.5553 7.6 45.5953 4.84 47.6753 2.92C49.7553 0.973333 52.5553 0 56.0753 0C59.5953 0 62.3953 0.973333 64.4753 2.92C66.5553 4.84 67.5953 7.6 67.5953 11.2V17.92C67.5953 21.52 66.5553 24.2933 64.4753 26.24C62.3953 28.16 59.5953 29.12 56.0753 29.12ZM56.0753 24.4C58.0486 24.4 59.5819 23.8266 60.6753 22.68C61.7686 21.5333 62.3153 20 62.3153 18.08V11.04C62.3153 9.12 61.7686 7.58666 60.6753 6.44C59.5819 5.29333 58.0486 4.72 56.0753 4.72C54.1286 4.72 52.5953 5.29333 51.4753 6.44C50.3819 7.58666 49.8353 9.12 49.8353 11.04V18.08C49.8353 20 50.3819 21.5333 51.4753 22.68C52.5953 23.8266 54.1286 24.4 56.0753 24.4ZM93.0228 29.12C89.5561 29.12 86.8094 28.16 84.7828 26.24C82.7561 24.2933 81.7428 21.52 81.7428 17.92V11.2C81.7428 7.6 82.7561 4.84 84.7828 2.92C86.8094 0.973333 89.5561 0 93.0228 0C96.4628 0 99.1161 0.946667 100.983 2.84C102.876 4.70666 103.823 7.28 103.823 10.56V10.8H98.6228V10.4C98.6228 8.74666 98.1561 7.38666 97.2228 6.32C96.3161 5.25333 94.9161 4.72 93.0228 4.72C91.1561 4.72 89.6894 5.29333 88.6228 6.44C87.5561 7.58666 87.0228 9.14666 87.0228 11.12V18C87.0228 19.9466 87.5561 21.5066 88.6228 22.68C89.6894 23.8266 91.1561 24.4 93.0228 24.4C94.9161 24.4 96.3161 23.8666 97.2228 22.8C98.1561 21.7066 98.6228 20.3466 98.6228 18.72V18H103.823V18.56C103.823 21.84 102.876 24.4266 100.983 26.32C99.1161 28.1866 96.4628 29.12 93.0228 29.12ZM119.005 29.12C115.485 29.12 112.685 28.16 110.605 26.24C108.525 24.2933 107.485 21.52 107.485 17.92V11.2C107.485 7.6 108.525 4.84 110.605 2.92C112.685 0.973333 115.485 0 119.005 0C122.525 0 125.325 0.973333 127.405 2.92C129.485 4.84 130.525 7.6 130.525 11.2V17.92C130.525 21.52 129.485 24.2933 127.405 26.24C125.325 28.16 122.525 29.12 119.005 29.12ZM119.005 24.4C120.978 24.4 122.512 23.8266 123.605 22.68C124.698 21.5333 125.245 20 125.245 18.08V11.04C125.245 9.12 124.698 7.58666 123.605 6.44C122.512 5.29333 120.978 4.72 119.005 4.72C117.058 4.72 115.525 5.29333 114.405 6.44C113.312 7.58666 112.765 9.12 112.765 11.04V18.08C112.765 20 113.312 21.5333 114.405 22.68C115.525 23.8266 117.058 24.4 119.005 24.4ZM133.458 28.56V23.92H137.138V5.2H133.458V0.56H144.978C148.738 0.56 151.591 1.52 153.538 3.44C155.511 5.33333 156.498 8.16 156.498 11.92V17.2C156.498 20.96 155.511 23.8 153.538 25.72C151.591 27.6133 148.738 28.56 144.978 28.56H133.458ZM142.418 23.76H145.058C147.191 23.76 148.751 23.2 149.738 22.08C150.724 20.96 151.218 19.3866 151.218 17.36V11.76C151.218 9.70666 150.724 8.13333 149.738 7.04C148.751 5.92 147.191 5.36 145.058 5.36H142.418V23.76ZM160.898 28.56V0.56H178.898V5.36H166.178V12.04H177.778V16.84H166.178V23.76H179.138V28.56H160.898ZM192.767 29.12C190.607 29.12 188.7 28.7333 187.047 27.96C185.393 27.1866 184.1 26.08 183.167 24.64C182.233 23.2 181.767 21.4666 181.767 19.44V18.32H186.967V19.44C186.967 21.12 187.487 22.3866 188.527 23.24C189.567 24.0666 190.98 24.48 192.767 24.48C194.58 24.48 195.927 24.12 196.807 23.4C197.713 22.68 198.167 21.76 198.167 20.64C198.167 19.8666 197.94 19.24 197.487 18.76C197.06 18.28 196.42 17.8933 195.567 17.6C194.74 17.28 193.727 16.9866 192.527 16.72L191.607 16.52C189.687 16.0933 188.033 15.56 186.647 14.92C185.287 14.2533 184.233 13.3866 183.487 12.32C182.767 11.2533 182.407 9.86666 182.407 8.16C182.407 6.45333 182.807 5 183.607 3.8C184.433 2.57333 185.58 1.64 187.047 1C188.54 0.333334 190.287 0 192.287 0C194.287 0 196.06 0.346667 197.607 1.04C199.18 1.70666 200.407 2.72 201.287 4.08C202.193 5.41333 202.647 7.09333 202.647 9.12V10.32H197.447V9.12C197.447 8.05333 197.233 7.2 196.807 6.56C196.407 5.89333 195.82 5.41333 195.047 5.12C194.273 4.8 193.353 4.64 192.287 4.64C190.687 4.64 189.5 4.94666 188.727 5.56C187.98 6.14666 187.607 6.96 187.607 8C187.607 8.69333 187.78 9.28 188.127 9.76C188.5 10.24 189.047 10.64 189.767 10.96C190.487 11.28 191.407 11.56 192.527 11.8L193.447 12C195.447 12.4266 197.18 12.9733 198.647 13.64C200.14 14.3066 201.3 15.1866 202.127 16.28C202.953 17.3733 203.367 18.7733 203.367 20.48C203.367 22.1866 202.927 23.6933 202.047 25C201.193 26.28 199.967 27.2933 198.367 28.04C196.793 28.76 194.927 29.12 192.767 29.12ZM210.625 29.12C209.558 29.12 208.651 28.7733 207.905 28.08C207.185 27.36 206.825 26.44 206.825 25.32C206.825 24.2 207.185 23.2933 207.905 22.6C208.651 21.88 209.558 21.52 210.625 21.52C211.718 21.52 212.625 21.88 213.345 22.6C214.065 23.2933 214.425 24.2 214.425 25.32C214.425 26.44 214.065 27.36 213.345 28.08C212.625 28.7733 211.718 29.12 210.625 29.12Z" fill="#1A1A1A"/>
</g>
<defs>
<clipPath id="clip0_168_1039">
<rect width="215" height="30" fill="white"/>
</clipPath>
</defs>
</svg>
